<svg width="24" height="24" viewBox="0 0 24 24" fill="none" xmlns="http://www.w3.org/2000/svg">
<path d="M22.0001 16.9196V19.9196C22.0012 20.1981 21.9441 20.4738 21.8326 20.729C21.721 20.9841 21.5574 21.2132 21.3521 21.4015C21.1469 21.5898 20.9046 21.7331 20.6408 21.8223C20.377 21.9115 20.0974 21.9447 19.8201 21.9196C16.7429 21.5852 13.7871 20.5338 11.1901 18.8496C8.77388 17.3143 6.72539 15.2658 5.19006 12.8496C3.50003 10.2408 2.4483 7.2706 2.12006 4.17961C2.09507 3.90308 2.12793 3.62437 2.21656 3.36123C2.30518 3.0981 2.44763 2.8563 2.63482 2.65123C2.82202 2.44616 3.04986 2.28232 3.30385 2.17013C3.55783 2.05794 3.8324 1.99987 4.11006 1.99961H7.11006C7.59536 1.99483 8.06585 2.16669 8.43382 2.48314C8.80179 2.7996 9.04213 3.23906 9.11005 3.71961C9.23668 4.67968 9.47151 5.62234 9.81006 6.52961C9.9446 6.88753 9.97372 7.27652 9.89396 7.65049C9.81421 8.02445 9.62892 8.36772 9.36005 8.63961L8.09006 9.90961C9.51361 12.4132 11.5865 14.4861 14.0901 15.9096L15.3601 14.6396C15.6319 14.3707 15.9752 14.1855 16.3492 14.1057C16.7231 14.0259 17.1121 14.0551 17.4701 14.1896C18.3773 14.5282 19.32 14.763 20.2801 14.8896C20.7658 14.9581 21.2095 15.2028 21.5266 15.5771C21.8437 15.9514 22.0122 16.4292 22.0001 16.9196Z" stroke="white" stroke-width="2" stroke-linecap="round" stroke-linejoin="round"/>
</svg>
