<svg width="300" height="300" viewBox="0 0 300 300" fill="none" xmlns="http://www.w3.org/2000/svg">
<g clip-path="url(#clip0_269_2)">
<rect width="300" height="300" fill="#FAFAFA"/>
<path d="M8.68848 172C9.47624 166.486 10.0671 161.329 10.4609 156.531C10.8548 151.697 11.0518 147.168 11.0518 142.942C11.0518 138.073 10.8369 133.328 10.4072 128.709C10.0133 124.09 9.54785 119.614 9.01074 115.281L8.68848 113.455C10.8727 113.204 13.0391 112.703 15.1875 111.951C17.3717 111.163 19.7171 110.071 22.2236 108.675C21.4001 114.01 20.7734 118.862 20.3438 123.23C19.9499 127.563 19.7529 131.484 19.7529 134.993L19.8066 137.41C20.2005 145.503 20.5228 151.787 20.7734 156.263C21.0599 160.739 21.2926 163.478 21.4717 164.48L23.9961 165.716C26.7891 166.718 29.4925 167.22 32.1064 167.22C38.2295 167.22 43.4215 164.66 47.6826 159.539C49.4014 157.104 50.8516 154.795 52.0332 152.61C53.2148 150.426 54.1637 148.26 54.8799 146.111C55.6318 143.927 56.151 141.725 56.4375 139.505C56.7598 137.249 56.9209 134.832 56.9209 132.254C56.9209 129.461 56.7061 126.919 56.2764 124.627C55.8825 122.299 55.2559 120.151 54.3965 118.182C53.5371 116.212 52.445 114.386 51.1201 112.703C49.8311 110.984 48.2734 109.337 46.4473 107.762C44.2272 105.828 41.5238 104.253 38.3369 103.035C35.1859 101.818 31.5872 101.209 27.541 101.209C25.679 101.209 23.6917 101.442 21.5791 101.907C19.5023 102.337 17.3896 102.981 15.2412 103.841C13.0928 104.664 10.9622 105.667 8.84961 106.849C6.73698 108.03 4.73177 109.355 2.83398 110.823L6.43262 96.751L15.1338 93.3135C17.8193 92.5257 20.3079 91.917 22.5996 91.4873C24.8913 91.0218 26.986 90.7891 28.8838 90.7891C30.4235 90.7891 32.1064 90.9323 33.9326 91.2188C35.7588 91.4694 37.7103 91.9528 39.7871 92.6689C41.8997 93.3851 44.1019 94.3877 46.3936 95.6768C48.6852 96.9658 51.0664 98.6309 53.5371 100.672C55.1842 102.033 56.7419 103.751 58.21 105.828C59.7139 107.905 61.0208 110.286 62.1309 112.972C63.2767 115.657 64.1719 118.629 64.8164 121.888C65.4967 125.11 65.8369 128.584 65.8369 132.308C65.8369 136.211 65.4251 139.845 64.6016 143.211C63.8138 146.541 62.7754 149.585 61.4863 152.342C60.1973 155.099 58.7113 157.534 57.0283 159.646C55.3812 161.759 53.6982 163.514 51.9795 164.91C49.1149 167.238 46.1787 168.992 43.1709 170.174C40.1989 171.355 37.0837 171.964 33.8252 172L22.2236 167.059C20.3975 167.273 18.7861 167.578 17.3896 167.972C16.029 168.33 14.8115 168.742 13.7373 169.207C12.6631 169.673 11.7142 170.156 10.8906 170.657C10.1029 171.123 9.36882 171.57 8.68848 172ZM77.9863 119.148L77.9326 119.202C76.8942 121.136 75.7842 124.376 74.6025 128.924C73.7432 132.182 73.3135 135.226 73.3135 138.055C73.3135 139.165 73.403 140.328 73.582 141.546C74.0475 144.697 75.3724 147.902 77.5566 151.16C79.8125 154.562 82.9098 157.158 86.8486 158.948C90.5368 160.631 95.8184 162.26 102.693 163.836L102.747 163.782C103.606 161.849 104.627 158.304 105.809 153.147C106.525 150.032 106.883 147.203 106.883 144.661C106.883 143.3 106.793 142.101 106.614 141.062C106.077 137.911 104.752 134.707 102.64 131.448C100.921 128.799 97.8236 126.22 93.3477 123.714C89.8385 121.744 84.7181 120.223 77.9863 119.148ZM91.0918 172.215C88.9434 171.678 86.401 170.639 83.4648 169.1C80.5645 167.56 77.8789 165.608 75.4082 163.245C72.2572 160.201 70.055 156.889 68.8018 153.309C67.262 149.656 66.4922 145.896 66.4922 142.029C66.4922 141.922 66.4922 141.85 66.4922 141.814C66.4922 137.983 67.3695 134.026 69.124 129.944C70.5205 126.686 72.293 123.911 74.4414 121.619C75.444 120.545 76.5182 119.578 77.6641 118.719L89.0508 111.253C90.8053 111.718 93.3656 112.811 96.7314 114.529C99.238 115.818 101.906 117.752 104.734 120.33C107.921 123.41 110.159 126.829 111.448 130.589C112.881 134.599 113.615 138.323 113.65 141.761V141.976C113.65 146.917 112.863 150.838 111.287 153.738C108.852 158.214 106.811 161.186 105.164 162.654C104.269 163.442 103.66 164.087 103.338 164.588L91.0918 172.215ZM116.078 172C117.439 161.258 118.119 152.342 118.119 145.252C118.119 141.707 118.101 139.773 118.065 139.451C117.994 131.108 117.421 123.606 116.347 116.946L116.078 116.087C120.411 115.586 124.797 114.064 129.237 111.521L129.613 111.307C128.897 113.419 128.127 115.854 127.304 118.611L139.066 111.307C141.107 111.844 143.632 112.882 146.64 114.422C149.433 115.89 152.118 117.841 154.696 120.276C157.847 123.284 160.067 126.596 161.356 130.213C162.753 133.65 163.505 137.41 163.612 141.492C163.935 151.912 164.597 159.79 165.6 165.125L166.029 167.059C163.63 167.345 161.446 167.846 159.477 168.562C156.361 169.708 154.034 170.854 152.494 172C153.891 162.618 154.589 153.541 154.589 144.769C154.553 143.623 154.535 142.602 154.535 141.707C154.535 137.589 153.891 134.474 152.602 132.361C150.453 129.21 147.338 126.614 143.256 124.573C139.675 122.783 134.376 121.172 127.357 119.739H127.304C127.053 122.353 126.928 128.154 126.928 137.142V139.021C126.928 149.083 127.68 157.785 129.184 165.125L129.613 167.059C127.178 167.345 124.994 167.846 123.061 168.562C119.945 169.708 117.618 170.854 116.078 172ZM192.369 172C193.157 166.521 193.748 161.347 194.142 156.478C194.535 151.608 194.732 147.007 194.732 142.674C194.732 137.661 194.518 132.881 194.088 128.333C193.694 123.75 193.229 119.399 192.691 115.281L192.369 113.455C194.553 113.204 196.72 112.703 198.868 111.951C201.052 111.163 203.398 110.071 205.904 108.675C205.081 113.903 204.454 118.701 204.024 123.069C203.631 127.438 203.434 131.412 203.434 134.993C203.434 135.638 203.434 136.229 203.434 136.766C203.434 137.303 203.451 137.894 203.487 138.538C203.523 139.183 203.559 139.935 203.595 140.794C203.631 141.653 203.684 142.71 203.756 143.963L204.776 144.446C209.216 146.058 213.209 146.863 216.754 146.863C219.225 146.863 221.552 146.523 223.736 145.843C225.921 145.162 227.89 144.196 229.645 142.942C231.399 141.653 232.849 140.096 233.995 138.27C235.141 136.408 235.929 134.331 236.358 132.039C236.573 130.75 236.734 129.55 236.842 128.44C236.985 127.295 237.057 126.22 237.057 125.218C237.057 123.427 236.86 121.691 236.466 120.008C236.072 118.289 235.553 116.678 234.908 115.174C234.264 113.634 233.512 112.238 232.652 110.984C231.829 109.695 230.969 108.567 230.074 107.601C229.251 106.741 228.194 105.918 226.905 105.13C225.652 104.342 224.22 103.644 222.608 103.035C220.997 102.426 219.225 101.943 217.291 101.585C215.393 101.227 213.352 101.048 211.168 101.048C209.306 101.048 207.337 101.281 205.26 101.746C203.219 102.176 201.142 102.802 199.029 103.626C196.917 104.45 194.786 105.452 192.638 106.634C190.525 107.815 188.466 109.158 186.461 110.662L190.06 96.5898C192.853 95.4798 194.965 94.6383 196.397 94.0654C197.83 93.4925 198.618 93.1882 198.761 93.1523C201.983 92.293 204.723 91.6663 206.979 91.2725C209.234 90.8428 211.096 90.6279 212.564 90.6279C214.247 90.6279 216.145 90.8428 218.258 91.2725C220.406 91.6663 222.59 92.293 224.811 93.1523C227.066 93.9759 229.251 95.0143 231.363 96.2676C233.512 97.485 235.445 98.8994 237.164 100.511C238.596 101.871 239.903 103.429 241.085 105.184C242.267 106.902 243.287 108.746 244.146 110.716C245.006 112.685 245.668 114.744 246.134 116.893C246.599 119.041 246.832 121.297 246.832 123.66C246.796 125.343 246.563 127.205 246.134 129.246C245.74 131.251 245.131 133.292 244.308 135.369C243.484 137.446 242.32 139.415 240.816 141.277C239.312 143.139 237.522 144.822 235.445 146.326C233.404 147.794 230.987 148.976 228.194 149.871C225.437 150.766 222.268 151.214 218.688 151.214C216.324 151.214 213.979 151.035 211.651 150.677C209.36 150.283 207.068 149.764 204.776 149.119L203.971 148.958C204.257 153.756 204.508 157.57 204.723 160.398C204.938 163.191 205.188 165 205.475 165.823L205.904 167.059C204.221 167.238 202.7 167.506 201.339 167.864C199.978 168.222 198.743 168.634 197.633 169.1C196.523 169.565 195.538 170.049 194.679 170.55C193.819 171.051 193.049 171.535 192.369 172ZM272.248 172.215C270.135 171.714 267.593 170.675 264.621 169.1C261.649 167.488 258.964 165.537 256.564 163.245C253.413 160.201 251.211 156.889 249.958 153.309C248.741 150.337 247.971 146.577 247.648 142.029V141.814C247.648 137.983 248.526 134.026 250.28 129.944C251.605 126.829 253.378 124.054 255.598 121.619C256.529 120.617 257.603 119.65 258.82 118.719L270.1 111.307C271.997 111.951 275.238 113.455 279.821 115.818C283.151 117.537 286.374 120.115 289.489 123.553C291.781 127.133 292.927 130.446 292.927 133.489C292.927 133.561 292.927 133.65 292.927 133.758C292.39 138.126 290.384 141.635 286.911 144.285C281.003 148.797 273.645 151.089 264.836 151.16C275.936 147.365 282.507 142.978 284.548 138.001C284.978 136.963 285.192 135.942 285.192 134.939C285.192 134.904 285.192 134.868 285.192 134.832C285.192 134.796 285.192 134.76 285.192 134.725C285.192 133.221 284.566 131.753 283.312 130.32C281.343 127.993 278.514 125.916 274.826 124.09C268.524 120.975 263.404 119.22 259.465 118.826C258.104 121.046 256.869 124.412 255.759 128.924C254.899 132.433 254.47 135.477 254.47 138.055C254.47 139.272 254.559 140.436 254.738 141.546C255.24 144.733 256.564 147.938 258.713 151.16C260.933 154.454 264.03 157.05 268.005 158.948C271.442 160.595 276.724 162.225 283.85 163.836L283.903 163.782C284.476 162.887 284.763 161.329 284.763 159.109C284.763 157.713 284.53 155.887 284.064 153.631L291.691 156.639C290.725 158.823 289.149 160.792 286.965 162.547C285.318 163.872 284.494 164.552 284.494 164.588L272.248 172.215ZM264.406 106.419C265.803 105.846 267.163 105.076 268.488 104.109C270.35 102.749 271.944 101.352 273.269 99.9199C273.591 99.5618 274.164 98.8099 274.987 97.6641C275.632 96.7689 276.724 94.4772 278.264 90.7891C281.021 92.8301 284.816 94.513 289.65 95.8379L286.052 98.1475C284.261 99.3291 282.507 100.726 280.788 102.337C280.394 102.695 279.929 103.286 279.392 104.109C277.852 106.437 276.778 108.567 276.169 110.501C275.99 111.074 275.9 111.378 275.9 111.414L271.12 108.729C269.222 107.618 266.984 106.849 264.406 106.419Z" fill="#DB0032"/>
<path d="M6.57416 207.102C90.8275 169.19 230.665 171.029 290.052 176.687C150.281 186.166 110.846 207.277 85.0048 220.307C58.5268 206.116 27.925 205.636 6.57416 207.102Z" fill="#DB0032"/>
</g>
<defs>
<clipPath id="clip0_269_2">
<rect width="300" height="300" fill="white"/>
</clipPath>
</defs>
</svg>


