<svg width="22" height="35" viewBox="0 0 22 35" fill="none" xmlns="http://www.w3.org/2000/svg">
<path d="M10.9978 12.9408L0 17.8274L10.9978 24.1753L21.9914 17.8274L10.9978 12.9408Z" fill="#009738"/>
<path d="M0 17.8274L10.9978 24.1753L10.9979 0L0 17.8274Z" fill="#F9ED66"/>
<path d="M10.9979 0L10.9978 24.1753L21.9914 17.8274L10.9979 0Z" fill="#DE573C"/>
<path d="M0 19.863L10.9979 35V26.2109L0 19.863Z" fill="#10AFD3"/>
<path d="M10.9979 26.2109V35L22.0002 19.863L10.9979 26.2109Z" fill="#647BBD"/>
<g opacity="0.8">
<path d="M10.9978 12.9408L0 17.8274L10.9978 24.1753L21.9914 17.8274L10.9978 12.9408Z" fill="#009738"/>
</g>
<g opacity="0.6">
<path d="M0 17.8273L10.9979 24.1752V0L0 17.8273Z" fill="#F9ED66"/>
</g>
<g opacity="0.6">
<path d="M10.998 0V24.1752L21.9916 17.8273L10.998 0Z" fill="#DE573C"/>
</g>
<g opacity="0.8">
<path d="M0 19.863L10.9979 35V26.2109L0 19.863Z" fill="#10AFD3"/>
</g>
<g opacity="0.8">
<path d="M10.998 26.2109V35L22.0002 19.863L10.998 26.2109Z" fill="#647BBD"/>
</g>
</svg>
