<svg width="140" height="110" viewBox="0 0 140 110" fill="none" xmlns="http://www.w3.org/2000/svg">
<path d="M89.195 68.75H42.5V74.25H97.5V68.75H89.195ZM94.75 66C94.0075 54.8075 85.8125 45.65 75.06 43.4225C75.335 42.7625 75.5 42.02 75.5 41.25C75.5 38.225 73.025 35.75 70 35.75C66.975 35.75 64.5 38.225 64.5 41.25C64.5 42.02 64.665 42.7625 64.94 43.4225C54.1875 45.65 45.9925 54.8075 45.25 66H94.75ZM70 48.345C78.1125 48.345 85.0425 53.3775 87.875 60.4725H52.125C54.9575 53.3775 61.8875 48.345 70 48.345Z" fill="#33E06E"/>
</svg>
