<svg width="140" height="110" viewBox="0 0 140 110" fill="none" xmlns="http://www.w3.org/2000/svg">
<path d="M60.4167 74.1666H54.6667C53.65 74.1666 52.675 73.7628 51.9561 73.0439C51.2372 72.325 50.8334 71.35 50.8334 70.3333V56.9166C50.8334 55.9 51.2372 54.925 51.9561 54.2061C52.675 53.4872 53.65 53.0833 54.6667 53.0833H60.4167M73.8334 49.25V41.5833C73.8334 40.0583 73.2276 38.5958 72.1492 37.5174C71.0709 36.4391 69.6084 35.8333 68.0834 35.8333L60.4167 53.0833V74.1666H82.0367C82.9612 74.1771 83.8583 73.8531 84.5627 73.2543C85.2671 72.6556 85.7314 71.8224 85.87 70.9083L88.515 53.6583C88.5984 53.1089 88.5614 52.548 88.4064 52.0143C88.2515 51.4806 87.9824 50.987 87.6178 50.5677C87.2531 50.1484 86.8017 49.8133 86.2947 49.5858C85.7877 49.3583 85.2374 49.2437 84.6817 49.25H73.8334Z" stroke="#C5C2D8" stroke-width="4.6" stroke-linecap="round" stroke-linejoin="round"/>
</svg>
