<svg width="140" height="110" viewBox="0 0 140 110" fill="none" xmlns="http://www.w3.org/2000/svg">
<path d="M47.8334 43.5H69.5556M91.2778 43.5H69.5556M69.5556 43.5V69M69.5556 69C72.0741 69 76.1667 71.8333 76.1667 74.6667M69.5556 69C67.0371 69 62.9445 70.8889 62.9445 74.6667" stroke="#8981B7" stroke-width="4.65753" stroke-linecap="round"/>
<path d="M113 35L109.222 57.6667M109.222 57.6667H92.2221L90.8055 66.1667M109.222 57.6667L111.111 66.1667M113 74.6667L111.111 66.1667M89.3888 74.6667L90.8055 66.1667M90.8055 66.1667H111.111" stroke="#8981B7" stroke-width="4.65753" stroke-linecap="round"/>
<path d="M28.0001 35L31.7779 57.6667M31.7779 57.6667H48.7779L50.1945 66.1667M31.7779 57.6667L29.889 66.1667M28.0001 74.6667L29.889 66.1667M51.6112 74.6667L50.1945 66.1667M50.1945 66.1667H29.889" stroke="#8981B7" stroke-width="4.65753" stroke-linecap="round"/>
</svg>
