<svg width="140" height="110" viewBox="0 0 140 110" fill="none" xmlns="http://www.w3.org/2000/svg">
<path d="M84.2856 58.288C84.2856 57.1835 83.3901 56.288 82.2856 56.288C81.181 56.288 80.2856 57.1835 80.2856 58.288H84.2856ZM59.857 60.2664C60.9497 60.4283 61.9667 59.6738 62.1285 58.5811C62.2904 57.4885 61.5358 56.4715 60.4432 56.3096L59.857 60.2664ZM77.4902 47.016C78.3633 47.6927 79.6195 47.5334 80.2962 46.6603C80.9728 45.7873 80.8135 44.531 79.9405 43.8544L77.4902 47.016ZM78.9855 54.1644C77.8911 54.0152 76.8829 54.7814 76.7337 55.8759C76.5844 56.9703 77.3507 57.9785 78.4451 58.1277L78.9855 54.1644ZM66.5765 38.6521L65.9769 40.5601L66.5765 38.6521ZM63.1866 50.7869C62.1987 50.293 60.9973 50.6934 60.5034 51.6814C60.0094 52.6693 60.4098 53.8707 61.3978 54.3646L63.1866 50.7869ZM76.8304 54.3241C77.7959 53.7877 78.1438 52.5701 77.6074 51.6045C77.071 50.6389 75.8534 50.2911 74.8878 50.8275L76.8304 54.3241ZM61.5782 76.7111H78.0013V72.7111H61.5782V76.7111ZM84.2856 70.4268V66.4996H80.2856V70.4268H84.2856ZM82.2856 66.4996C84.2856 66.4996 84.2856 66.4996 84.2856 66.4995C84.2856 66.4995 84.2856 66.4994 84.2856 66.4994C84.2856 66.4993 84.2856 66.4992 84.2856 66.4991C84.2856 66.499 84.2856 66.4988 84.2856 66.4987C84.2856 66.4985 84.2856 66.4983 84.2856 66.4982C84.2856 66.498 84.2856 66.4978 84.2856 66.4975C84.2856 66.4973 84.2856 66.4971 84.2856 66.4968C84.2856 66.4965 84.2856 66.4962 84.2856 66.4959C84.2856 66.4956 84.2856 66.4953 84.2856 66.495C84.2856 66.4946 84.2856 66.4943 84.2856 66.4939C84.2856 66.4935 84.2856 66.4931 84.2856 66.4927C84.2856 66.4923 84.2856 66.4919 84.2856 66.4914C84.2856 66.491 84.2856 66.4905 84.2856 66.49C84.2856 66.4895 84.2856 66.489 84.2856 66.4885C84.2856 66.488 84.2856 66.4874 84.2856 66.4869C84.2856 66.4863 84.2856 66.4857 84.2856 66.4851C84.2856 66.4845 84.2856 66.4839 84.2856 66.4833C84.2856 66.4826 84.2856 66.482 84.2856 66.4813C84.2856 66.4807 84.2856 66.48 84.2856 66.4793C84.2856 66.4785 84.2856 66.4778 84.2856 66.4771C84.2856 66.4763 84.2856 66.4756 84.2856 66.4748C84.2856 66.474 84.2856 66.4732 84.2856 66.4724C84.2856 66.4716 84.2856 66.4708 84.2856 66.4699C84.2856 66.4691 84.2856 66.4682 84.2856 66.4673C84.2856 66.4664 84.2856 66.4655 84.2856 66.4646C84.2856 66.4637 84.2856 66.4627 84.2856 66.4618C84.2856 66.4608 84.2856 66.4598 84.2856 66.4588C84.2856 66.4578 84.2856 66.4568 84.2856 66.4558C84.2856 66.4548 84.2856 66.4537 84.2856 66.4527C84.2856 66.4516 84.2856 66.4505 84.2856 66.4494C84.2856 66.4483 84.2856 66.4472 84.2856 66.4461C84.2856 66.4449 84.2856 66.4438 84.2856 66.4426C84.2856 66.4414 84.2856 66.4402 84.2856 66.439C84.2856 66.4378 84.2856 66.4366 84.2856 66.4354C84.2856 66.4341 84.2856 66.4329 84.2856 66.4316C84.2856 66.4303 84.2856 66.429 84.2856 66.4277C84.2856 66.4264 84.2856 66.4251 84.2856 66.4237C84.2856 66.4224 84.2856 66.421 84.2856 66.4197C84.2856 66.4183 84.2856 66.4169 84.2856 66.4155C84.2856 66.4141 84.2856 66.4126 84.2856 66.4112C84.2856 66.4097 84.2856 66.4083 84.2856 66.4068C84.2856 66.4053 84.2856 66.4038 84.2856 66.4023C84.2856 66.4008 84.2856 66.3993 84.2856 66.3977C84.2856 66.3962 84.2856 66.3946 84.2856 66.393C84.2856 66.3914 84.2856 66.3898 84.2856 66.3882C84.2856 66.3866 84.2856 66.385 84.2856 66.3833C84.2856 66.3817 84.2856 66.38 84.2856 66.3783C84.2856 66.3766 84.2856 66.3749 84.2856 66.3732C84.2856 66.3715 84.2856 66.3698 84.2856 66.368C84.2856 66.3663 84.2856 66.3645 84.2856 66.3627C84.2856 66.361 84.2856 66.3592 84.2856 66.3573C84.2856 66.3555 84.2856 66.3537 84.2856 66.3518C84.2856 66.35 84.2856 66.3481 84.2856 66.3462C84.2856 66.3444 84.2856 66.3425 84.2856 66.3406C84.2856 66.3386 84.2856 66.3367 84.2856 66.3348C84.2856 66.3328 84.2856 66.3309 84.2856 66.3289C84.2856 66.3269 84.2856 66.3249 84.2856 66.3229C84.2856 66.3209 84.2856 66.3188 84.2856 66.3168C84.2856 66.3148 84.2856 66.3127 84.2856 66.3106C84.2856 66.3085 84.2856 66.3065 84.2856 66.3043C84.2856 66.3022 84.2856 66.3001 84.2856 66.298C84.2856 66.2958 84.2856 66.2937 84.2856 66.2915C84.2856 66.2893 84.2856 66.2871 84.2856 66.2849C84.2856 66.2827 84.2856 66.2805 84.2856 66.2783C84.2856 66.276 84.2856 66.2738 84.2856 66.2715C84.2856 66.2693 84.2856 66.267 84.2856 66.2647C84.2856 66.2624 84.2856 66.2601 84.2856 66.2577C84.2856 66.2554 84.2856 66.253 84.2856 66.2507C84.2856 66.2483 84.2856 66.2459 84.2856 66.2435C84.2856 66.2412 84.2856 66.2387 84.2856 66.2363C84.2856 66.2339 84.2856 66.2315 84.2856 66.229C84.2856 66.2265 84.2856 66.2241 84.2856 66.2216C84.2856 66.2191 84.2856 66.2166 84.2856 66.2141C84.2856 66.2116 84.2856 66.209 84.2856 66.2065C84.2856 66.2039 84.2856 66.2014 84.2856 66.1988C84.2856 66.1962 84.2856 66.1936 84.2856 66.191C84.2856 66.1884 84.2856 66.1858 84.2856 66.1831C84.2856 66.1805 84.2856 66.1778 84.2856 66.1752C84.2856 66.1725 84.2856 66.1698 84.2856 66.1671C84.2856 66.1644 84.2856 66.1617 84.2856 66.159C84.2856 66.1562 84.2856 66.1535 84.2856 66.1507C84.2856 66.148 84.2856 66.1452 84.2856 66.1424C84.2856 66.1396 84.2856 66.1368 84.2856 66.134C84.2856 66.1312 84.2856 66.1283 84.2856 66.1255C84.2856 66.1226 84.2856 66.1198 84.2856 66.1169C84.2856 66.114 84.2856 66.1111 84.2856 66.1082C84.2856 66.1053 84.2856 66.1024 84.2856 66.0994C84.2856 66.0965 84.2856 66.0936 84.2856 66.0906C84.2856 66.0876 84.2856 66.0846 84.2856 66.0816C84.2856 66.0786 84.2856 66.0756 84.2856 66.0726C84.2856 66.0696 84.2856 66.0665 84.2856 66.0635C84.2856 66.0604 84.2856 66.0574 84.2856 66.0543C84.2856 66.0512 84.2856 66.0481 84.2856 66.045C84.2856 66.0419 84.2856 66.0387 84.2856 66.0356C84.2856 66.0325 84.2856 66.0293 84.2856 66.0261C84.2856 66.023 84.2856 66.0198 84.2856 66.0166C84.2856 66.0134 84.2856 66.0102 84.2856 66.0069C84.2856 66.0037 84.2856 66.0005 84.2856 65.9972C84.2856 65.994 84.2856 65.9907 84.2856 65.9874C84.2856 65.9841 84.2856 65.9808 84.2856 65.9775C84.2856 65.9742 84.2856 65.9709 84.2856 65.9675C84.2856 65.9642 84.2856 65.9609 84.2856 65.9575C84.2856 65.9541 84.2856 65.9507 84.2856 65.9473C84.2856 65.9439 84.2856 65.9405 84.2856 65.9371C84.2856 65.9337 84.2856 65.9303 84.2856 65.9268C84.2856 65.9234 84.2856 65.9199 84.2856 65.9164C84.2856 65.9129 84.2856 65.9094 84.2856 65.9059C84.2856 65.9024 84.2856 65.8989 84.2856 65.8954C84.2856 65.8918 84.2856 65.8883 84.2856 65.8847C84.2856 65.8812 84.2856 65.8776 84.2856 65.874C84.2856 65.8704 84.2856 65.8668 84.2856 65.8632C84.2856 65.8596 84.2856 65.856 84.2856 65.8523C84.2856 65.8487 84.2856 65.845 84.2856 65.8414C84.2856 65.8377 84.2856 65.834 84.2856 65.8303C84.2856 65.8266 84.2856 65.8229 84.2856 65.8192C84.2856 65.8155 84.2856 65.8118 84.2856 65.808C84.2856 65.8043 84.2856 65.8005 84.2856 65.7967C84.2856 65.793 84.2856 65.7892 84.2856 65.7854C84.2856 65.7816 84.2856 65.7778 84.2856 65.7739C84.2856 65.7701 84.2856 65.7663 84.2856 65.7624C84.2856 65.7586 84.2856 65.7547 84.2856 65.7508C84.2856 65.7469 84.2856 65.743 84.2856 65.7391C84.2856 65.7352 84.2856 65.7313 84.2856 65.7274C84.2856 65.7235 84.2856 65.7195 84.2856 65.7156C84.2856 65.7116 84.2856 65.7076 84.2856 65.7037C84.2856 65.6997 84.2856 65.6957 84.2856 65.6917C84.2856 65.6877 84.2856 65.6837 84.2856 65.6796C84.2856 65.6756 84.2856 65.6715 84.2856 65.6675C84.2856 65.6634 84.2856 65.6594 84.2856 65.6553C84.2856 65.6512 84.2856 65.6471 84.2856 65.643C84.2856 65.6389 84.2856 65.6348 84.2856 65.6306C84.2856 65.6265 84.2856 65.6224 84.2856 65.6182C84.2856 65.614 84.2856 65.6099 84.2856 65.6057C84.2856 65.6015 84.2856 65.5973 84.2856 65.5931C84.2856 65.5889 84.2856 65.5847 84.2856 65.5805C84.2856 65.5762 84.2856 65.572 84.2856 65.5677C84.2856 65.5635 84.2856 65.5592 84.2856 65.5549C84.2856 65.5506 84.2856 65.5464 84.2856 65.542C84.2856 65.5377 84.2856 65.5334 84.2856 65.5291C84.2856 65.5248 84.2856 65.5204 84.2856 65.5161C84.2856 65.5117 84.2856 65.5074 84.2856 65.503C84.2856 65.4986 84.2856 65.4942 84.2856 65.4898C84.2856 65.4854 84.2856 65.481 84.2856 65.4766C84.2856 65.4722 84.2856 65.4677 84.2856 65.4633C84.2856 65.4588 84.2856 65.4544 84.2856 65.4499C84.2856 65.4454 84.2856 65.4409 84.2856 65.4365C84.2856 65.432 84.2856 65.4275 84.2856 65.4229C84.2856 65.4184 84.2856 65.4139 84.2856 65.4093C84.2856 65.4048 84.2856 65.4003 84.2856 65.3957C84.2856 65.3911 84.2856 65.3865 84.2856 65.382C84.2856 65.3774 84.2856 65.3728 84.2856 65.3682C84.2856 65.3636 84.2856 65.3589 84.2856 65.3543C84.2856 65.3497 84.2856 65.345 84.2856 65.3404C84.2856 65.3357 84.2856 65.331 84.2856 65.3264C84.2856 65.3217 84.2856 65.317 84.2856 65.3123C84.2856 65.3076 84.2856 65.3029 84.2856 65.2982C84.2856 65.2934 84.2856 65.2887 84.2856 65.284C84.2856 65.2792 84.2856 65.2745 84.2856 65.2697C84.2856 65.2649 84.2856 65.2601 84.2856 65.2554C84.2856 65.2506 84.2856 65.2458 84.2856 65.241C84.2856 65.2361 84.2856 65.2313 84.2856 65.2265C84.2856 65.2217 84.2856 65.2168 84.2856 65.212C84.2856 65.2071 84.2856 65.2022 84.2856 65.1974C84.2856 65.1925 84.2856 65.1876 84.2856 65.1827C84.2856 65.1778 84.2856 65.1729 84.2856 65.168C84.2856 65.163 84.2856 65.1581 84.2856 65.1532C84.2856 65.1482 84.2856 65.1433 84.2856 65.1383C84.2856 65.1333 84.2856 65.1284 84.2856 65.1234C84.2856 65.1184 84.2856 65.1134 84.2856 65.1084C84.2856 65.1034 84.2856 65.0984 84.2856 65.0934C84.2856 65.0883 84.2856 65.0833 84.2856 65.0782C84.2856 65.0732 84.2856 65.0681 84.2856 65.0631C84.2856 65.058 84.2856 65.0529 84.2856 65.0478C84.2856 65.0427 84.2856 65.0376 84.2856 65.0325C84.2856 65.0274 84.2856 65.0223 84.2856 65.0172C84.2856 65.0121 84.2856 65.0069 84.2856 65.0018C84.2856 64.9966 84.2856 64.9914 84.2856 64.9863C84.2856 64.9811 84.2856 64.9759 84.2856 64.9707C84.2856 64.9655 84.2856 64.9603 84.2856 64.9551C84.2856 64.9499 84.2856 64.9447 84.2856 64.9395C84.2856 64.9342 84.2856 64.929 84.2856 64.9237C84.2856 64.9185 84.2856 64.9132 84.2856 64.908C84.2856 64.9027 84.2856 64.8974 84.2856 64.8921C84.2856 64.8868 84.2856 64.8815 84.2856 64.8762C84.2856 64.8709 84.2856 64.8656 84.2856 64.8603C84.2856 64.8549 84.2856 64.8496 84.2856 64.8443C84.2856 64.8389 84.2856 64.8335 84.2856 64.8282C84.2856 64.8228 84.2856 64.8174 84.2856 64.812C84.2856 64.8067 84.2856 64.8013 84.2856 64.7959C84.2856 64.7904 84.2856 64.785 84.2856 64.7796C84.2856 64.7742 84.2856 64.7687 84.2856 64.7633C84.2856 64.7579 84.2856 64.7524 84.2856 64.7469C84.2856 64.7415 84.2856 64.736 84.2856 64.7305C84.2856 64.725 84.2856 64.7196 84.2856 64.7141C84.2856 64.7086 84.2856 64.703 84.2856 64.6975C84.2856 64.692 84.2856 64.6865 84.2856 64.6809C84.2856 64.6754 84.2856 64.6699 84.2856 64.6643C84.2856 64.6588 84.2856 64.6532 84.2856 64.6476C84.2856 64.642 84.2856 64.6365 84.2856 64.6309C84.2856 64.6253 84.2856 64.6197 84.2856 64.6141C84.2856 64.6085 84.2856 64.6028 84.2856 64.5972C84.2856 64.5916 84.2856 64.586 84.2856 64.5803C84.2856 64.5747 84.2856 64.569 84.2856 64.5633C84.2856 64.5577 84.2856 64.552 84.2856 64.5463C84.2856 64.5406 84.2856 64.535 84.2856 64.5293C84.2856 64.5236 84.2856 64.5179 84.2856 64.5121C84.2856 64.5064 84.2856 64.5007 84.2856 64.495C84.2856 64.4892 84.2856 64.4835 84.2856 64.4778C84.2856 64.472 84.2856 64.4662 84.2856 64.4605C84.2856 64.4547 84.2856 64.4489 84.2856 64.4432C84.2856 64.4374 84.2856 64.4316 84.2856 64.4258C84.2856 64.42 84.2856 64.4142 84.2856 64.4084C84.2856 64.4025 84.2856 64.3967 84.2856 64.3909C84.2856 64.385 84.2856 64.3792 84.2856 64.3734C84.2856 64.3675 84.2856 64.3616 84.2856 64.3558C84.2856 64.3499 84.2856 64.344 84.2856 64.3382C84.2856 64.3323 84.2856 64.3264 84.2856 64.3205C84.2856 64.3146 84.2856 64.3087 84.2856 64.3028C84.2856 64.2968 84.2856 64.2909 84.2856 64.285C84.2856 64.2791 84.2856 64.2731 84.2856 64.2672C84.2856 64.2612 84.2856 64.2553 84.2856 64.2493C84.2856 64.2433 84.2856 64.2374 84.2856 64.2314C84.2856 64.2254 84.2856 64.2194 84.2856 64.2134C84.2856 64.2074 84.2856 64.2014 84.2856 64.1954C84.2856 64.1894 84.2856 64.1834 84.2856 64.1774C84.2856 64.1713 84.2856 64.1653 84.2856 64.1593C84.2856 64.1532 84.2856 64.1472 84.2856 64.1411C84.2856 64.1351 84.2856 64.129 84.2856 64.1229C84.2856 64.1169 84.2856 64.1108 84.2856 64.1047C84.2856 64.0986 84.2856 64.0925 84.2856 64.0864C84.2856 64.0803 84.2856 64.0742 84.2856 64.0681C84.2856 64.062 84.2856 64.0559 84.2856 64.0497C84.2856 64.0436 84.2856 64.0375 84.2856 64.0313C84.2856 64.0252 84.2856 64.019 84.2856 64.0129C84.2856 64.0067 84.2856 64.0005 84.2856 63.9944C84.2856 63.9882 84.2856 63.982 84.2856 63.9758C84.2856 63.9696 84.2856 63.9634 84.2856 63.9572C84.2856 63.951 84.2856 63.9448 84.2856 63.9386C84.2856 63.9324 84.2856 63.9262 84.2856 63.9199C84.2856 63.9137 84.2856 63.9075 84.2856 63.9012C84.2856 63.895 84.2856 63.8887 84.2856 63.8825C84.2856 63.8762 84.2856 63.8699 84.2856 63.8637C84.2856 63.8574 84.2856 63.8511 84.2856 63.8448C84.2856 63.8385 84.2856 63.8323 84.2856 63.826C84.2856 63.8197 84.2856 63.8133 84.2856 63.807C84.2856 63.8007 84.2856 63.7944 84.2856 63.7881C84.2856 63.7818 84.2856 63.7754 84.2856 63.7691C84.2856 63.7627 84.2856 63.7564 84.2856 63.75C84.2856 63.7437 84.2856 63.7373 84.2856 63.731C84.2856 63.7246 84.2856 63.7182 84.2856 63.7119C84.2856 63.7055 84.2856 63.6991 84.2856 63.6927C84.2856 63.6863 84.2856 63.6799 84.2856 63.6735C84.2856 63.6671 84.2856 63.6607 84.2856 63.6543C84.2856 63.6479 84.2856 63.6414 84.2856 63.635C84.2856 63.6286 84.2856 63.6221 84.2856 63.6157C84.2856 63.6093 84.2856 63.6028 84.2856 63.5964C84.2856 63.5899 84.2856 63.5835 84.2856 63.577C84.2856 63.5705 84.2856 63.5641 84.2856 63.5576C84.2856 63.5511 84.2856 63.5446 84.2856 63.5381C84.2856 63.5316 84.2856 63.5251 84.2856 63.5186C84.2856 63.5121 84.2856 63.5056 84.2856 63.4991C84.2856 63.4926 84.2856 63.4861 84.2856 63.4796C84.2856 63.473 84.2856 63.4665 84.2856 63.46C84.2856 63.4534 84.2856 63.4469 84.2856 63.4403C84.2856 63.4338 84.2856 63.4272 84.2856 63.4207C84.2856 63.4141 84.2856 63.4076 84.2856 63.401C84.2856 63.3944 84.2856 63.3878 84.2856 63.3813C84.2856 63.3747 84.2856 63.3681 84.2856 63.3615C84.2856 63.3549 84.2856 63.3483 84.2856 63.3417C84.2856 63.3351 84.2856 63.3285 84.2856 63.3219C84.2856 63.3153 84.2856 63.3086 84.2856 63.302C84.2856 63.2954 84.2856 63.2888 84.2856 63.2821C84.2856 63.2755 84.2856 63.2688 84.2856 63.2622C84.2856 63.2555 84.2856 63.2489 84.2856 63.2422C84.2856 63.2356 84.2856 63.2289 84.2856 63.2223C84.2856 63.2156 84.2856 63.2089 84.2856 63.2022C84.2856 63.1956 84.2856 63.1889 84.2856 63.1822C84.2856 63.1755 84.2856 63.1688 84.2856 63.1621C84.2856 63.1554 84.2856 63.1487 84.2856 63.142C84.2856 63.1353 84.2856 63.1286 84.2856 63.1219C84.2856 63.1151 84.2856 63.1084 84.2856 63.1017C84.2856 63.095 84.2856 63.0882 84.2856 63.0815C84.2856 63.0748 84.2856 63.068 84.2856 63.0613C84.2856 63.0545 84.2856 63.0478 84.2856 63.041C84.2856 63.0343 84.2856 63.0275 84.2856 63.0207C84.2856 63.014 84.2856 63.0072 84.2856 63.0004C84.2856 62.9937 84.2856 62.9869 84.2856 62.9801C84.2856 62.9733 84.2856 62.9665 84.2856 62.9597C84.2856 62.9529 84.2856 62.9461 84.2856 62.9393C84.2856 62.9325 84.2856 62.9257 84.2856 62.9189C84.2856 62.9121 84.2856 62.9053 84.2856 62.8985C84.2856 62.8916 84.2856 62.8848 84.2856 62.878C84.2856 62.8712 84.2856 62.8643 84.2856 62.8575C84.2856 62.8507 84.2856 62.8438 84.2856 62.837C84.2856 62.8301 84.2856 62.8233 84.2856 62.8164C84.2856 62.8096 84.2856 62.8027 84.2856 62.7959C84.2856 62.789 84.2856 62.7821 84.2856 62.7753C84.2856 62.7684 84.2856 62.7615 84.2856 62.7546C84.2856 62.7478 84.2856 62.7409 84.2856 62.734C84.2856 62.7271 84.2856 62.7202 84.2856 62.7133C84.2856 62.7064 84.2856 62.6995 84.2856 62.6926C84.2856 62.6857 84.2856 62.6788 84.2856 62.6719C84.2856 62.665 84.2856 62.6581 84.2856 62.6512C84.2856 62.6443 84.2856 62.6373 84.2856 62.6304C84.2856 62.6235 84.2856 62.6166 84.2856 62.6096C84.2856 62.6027 84.2856 62.5958 84.2856 62.5888C84.2856 62.5819 84.2856 62.575 84.2856 62.568C84.2856 62.5611 84.2856 62.5541 84.2856 62.5472C84.2856 62.5402 84.2856 62.5333 84.2856 62.5263C84.2856 62.5193 84.2856 62.5124 84.2856 62.5054C84.2856 62.4984 84.2856 62.4915 84.2856 62.4845C84.2856 62.4775 84.2856 62.4706 84.2856 62.4636C84.2856 62.4566 84.2856 62.4496 84.2856 62.4426C84.2856 62.4356 84.2856 62.4287 84.2856 62.4217C84.2856 62.4147 84.2856 62.4077 84.2856 62.4007C84.2856 62.3937 84.2856 62.3867 84.2856 62.3797C84.2856 62.3727 84.2856 62.3657 84.2856 62.3586C84.2856 62.3516 84.2856 62.3446 84.2856 62.3376C84.2856 62.3306 84.2856 62.3236 84.2856 62.3165C84.2856 62.3095 84.2856 62.3025 84.2856 62.2955C84.2856 62.2884 84.2856 62.2814 84.2856 62.2744C84.2856 62.2673 84.2856 62.2603 84.2856 62.2533C84.2856 62.2462 84.2856 62.2392 84.2856 62.2321C84.2856 62.2251 84.2856 62.218 84.2856 62.211C84.2856 62.2039 84.2856 62.1969 84.2856 62.1898C84.2856 62.1828 84.2856 62.1757 84.2856 62.1687C84.2856 62.1616 84.2856 62.1545 84.2856 62.1475C84.2856 62.1404 84.2856 62.1333 84.2856 62.1263C84.2856 62.1192 84.2856 62.1121 84.2856 62.105C84.2856 62.098 84.2856 62.0909 84.2856 62.0838C84.2856 62.0767 84.2856 62.0696 84.2856 62.0625C84.2856 62.0555 84.2856 62.0484 84.2856 62.0413C84.2856 62.0342 84.2856 62.0271 84.2856 62.02C84.2856 62.0129 84.2856 62.0058 84.2856 61.9987C84.2856 61.9916 84.2856 61.9845 84.2856 61.9774C84.2856 61.9703 84.2856 61.9632 84.2856 61.9561C84.2856 61.949 84.2856 61.9419 84.2856 61.9348C84.2856 61.9277 84.2856 61.9205 84.2856 61.9134C84.2856 61.9063 84.2856 61.8992 84.2856 61.8921C84.2856 61.885 84.2856 61.8778 84.2856 61.8707C84.2856 61.8636 84.2856 61.8565 84.2856 61.8493C84.2856 61.8422 84.2856 61.8351 84.2856 61.8279C84.2856 61.8208 84.2856 61.8137 84.2856 61.8066C84.2856 61.7994 84.2856 61.7923 84.2856 61.7851C84.2856 61.778 84.2856 61.7709 84.2856 61.7637C84.2856 61.7566 84.2856 61.7494 84.2856 61.7423C84.2856 61.7352 84.2856 61.728 84.2856 61.7209C84.2856 61.7137 84.2856 61.7066 84.2856 61.6994C84.2856 61.6923 84.2856 61.6851 84.2856 61.678C84.2856 61.6708 84.2856 61.6637 84.2856 61.6565C84.2856 61.6494 84.2856 61.6422 84.2856 61.635C84.2856 61.6279 84.2856 61.6207 84.2856 61.6136C84.2856 61.6064 84.2856 61.5992 84.2856 61.5921C84.2856 61.5849 84.2856 61.5777 84.2856 61.5706C84.2856 61.5634 84.2856 61.5562 84.2856 61.5491C84.2856 61.5419 84.2856 61.5347 84.2856 61.5276C84.2856 61.5204 84.2856 61.5132 84.2856 61.5061C84.2856 61.4989 84.2856 61.4917 84.2856 61.4845C84.2856 61.4774 84.2856 61.4702 84.2856 61.463C84.2856 61.4558 84.2856 61.4487 84.2856 61.4415C84.2856 61.4343 84.2856 61.4271 84.2856 61.42C84.2856 61.4128 84.2856 61.4056 84.2856 61.3984C84.2856 61.3912 84.2856 61.3841 84.2856 61.3769C84.2856 61.3697 84.2856 61.3625 84.2856 61.3553C84.2856 61.3481 84.2856 61.341 84.2856 61.3338C84.2856 61.3266 84.2856 61.3194 84.2856 61.3122C84.2856 61.305 84.2856 61.2978 84.2856 61.2907C84.2856 61.2835 84.2856 61.2763 84.2856 61.2691C84.2856 61.2619 84.2856 61.2547 84.2856 61.2475C84.2856 61.2403 84.2856 61.2332 84.2856 61.226C84.2856 61.2188 84.2856 61.2116 84.2856 61.2044C84.2856 61.1972 84.2856 61.19 84.2856 61.1828C84.2856 61.1756 84.2856 61.1684 84.2856 61.1613C84.2856 61.1541 84.2856 61.1469 84.2856 61.1397C84.2856 61.1325 84.2856 61.1253 84.2856 61.1181C84.2856 61.1109 84.2856 61.1037 84.2856 61.0965C84.2856 61.0893 84.2856 61.0822 84.2856 61.075C84.2856 61.0678 84.2856 61.0606 84.2856 61.0534C84.2856 61.0462 84.2856 61.039 84.2856 61.0318C84.2856 61.0246 84.2856 61.0174 84.2856 61.0102C84.2856 61.0031 84.2856 60.9959 84.2856 60.9887C84.2856 60.9815 84.2856 60.9743 84.2856 60.9671C84.2856 60.9599 84.2856 60.9527 84.2856 60.9455C84.2856 60.9383 84.2856 60.9312 84.2856 60.924C84.2856 60.9168 84.2856 60.9096 84.2856 60.9024C84.2856 60.8952 84.2856 60.888 84.2856 60.8808C84.2856 60.8737 84.2856 60.8665 84.2856 60.8593C84.2856 60.8521 84.2856 60.8449 84.2856 60.8377C84.2856 60.8305 84.2856 60.8234 84.2856 60.8162C84.2856 60.809 84.2856 60.8018 84.2856 60.7946C84.2856 60.7874 84.2856 60.7803 84.2856 60.7731C84.2856 60.7659 84.2856 60.7587 84.2856 60.7515C84.2856 60.7444 84.2856 60.7372 84.2856 60.73C84.2856 60.7228 84.2856 60.7156 84.2856 60.7085C84.2856 60.7013 84.2856 60.6941 84.2856 60.6869C84.2856 60.6798 84.2856 60.6726 84.2856 60.6654C84.2856 60.6582 84.2856 60.6511 84.2856 60.6439C84.2856 60.6367 84.2856 60.6296 84.2856 60.6224C84.2856 60.6152 84.2856 60.6081 84.2856 60.6009C84.2856 60.5937 84.2856 60.5866 84.2856 60.5794C84.2856 60.5722 84.2856 60.5651 84.2856 60.5579C84.2856 60.5508 84.2856 60.5436 84.2856 60.5364C84.2856 60.5293 84.2856 60.5221 84.2856 60.515C84.2856 60.5078 84.2856 60.5006 84.2856 60.4935C84.2856 60.4863 84.2856 60.4792 84.2856 60.472C84.2856 60.4649 84.2856 60.4577 84.2856 60.4506C84.2856 60.4434 84.2856 60.4363 84.2856 60.4292C84.2856 60.422 84.2856 60.4149 84.2856 60.4077C84.2856 60.4006 84.2856 60.3934 84.2856 60.3863C84.2856 60.3792 84.2856 60.372 84.2856 60.3649C84.2856 60.3578 84.2856 60.3506 84.2856 60.3435C84.2856 60.3364 84.2856 60.3292 84.2856 60.3221C84.2856 60.315 84.2856 60.3078 84.2856 60.3007C84.2856 60.2936 84.2856 60.2865 84.2856 60.2794C84.2856 60.2722 84.2856 60.2651 84.2856 60.258C84.2856 60.2509 84.2856 60.2438 84.2856 60.2367C84.2856 60.2295 84.2856 60.2224 84.2856 60.2153C84.2856 60.2082 84.2856 60.2011 84.2856 60.194C84.2856 60.1869 84.2856 60.1798 84.2856 60.1727C84.2856 60.1656 84.2856 60.1585 84.2856 60.1514C84.2856 60.1443 84.2856 60.1372 84.2856 60.1301C84.2856 60.123 84.2856 60.1159 84.2856 60.1088C84.2856 60.1018 84.2856 60.0947 84.2856 60.0876C84.2856 60.0805 84.2856 60.0734 84.2856 60.0663C84.2856 60.0593 84.2856 60.0522 84.2856 60.0451C84.2856 60.038 84.2856 60.031 84.2856 60.0239C84.2856 60.0168 84.2856 60.0098 84.2856 60.0027C84.2856 59.9957 84.2856 59.9886 84.2856 59.9815C84.2856 59.9745 84.2856 59.9674 84.2856 59.9604C84.2856 59.9533 84.2856 59.9463 84.2856 59.9392C84.2856 59.9322 84.2856 59.9251 84.2856 59.9181C84.2856 59.911 84.2856 59.904 84.2856 59.897C84.2856 59.8899 84.2856 59.8829 84.2856 59.8759C84.2856 59.8688 84.2856 59.8618 84.2856 59.8548C84.2856 59.8478 84.2856 59.8407 84.2856 59.8337C84.2856 59.8267 84.2856 59.8197 84.2856 59.8127C84.2856 59.8057 84.2856 59.7986 84.2856 59.7916C84.2856 59.7846 84.2856 59.7776 84.2856 59.7706C84.2856 59.7636 84.2856 59.7566 84.2856 59.7496C84.2856 59.7426 84.2856 59.7356 84.2856 59.7287C84.2856 59.7217 84.2856 59.7147 84.2856 59.7077C84.2856 59.7007 84.2856 59.6937 84.2856 59.6868C84.2856 59.6798 84.2856 59.6728 84.2856 59.6659C84.2856 59.6589 84.2856 59.6519 84.2856 59.645C84.2856 59.638 84.2856 59.631 84.2856 59.6241C84.2856 59.6171 84.2856 59.6102 84.2856 59.6032C84.2856 59.5963 84.2856 59.5893 84.2856 59.5824C84.2856 59.5755 84.2856 59.5685 84.2856 59.5616C84.2856 59.5547 84.2856 59.5477 84.2856 59.5408C84.2856 59.5339 84.2856 59.5269 84.2856 59.52C84.2856 59.5131 84.2856 59.5062 84.2856 59.4993C84.2856 59.4924 84.2856 59.4855 84.2856 59.4786C84.2856 59.4717 84.2856 59.4648 84.2856 59.4579C84.2856 59.451 84.2856 59.4441 84.2856 59.4372C84.2856 59.4303 84.2856 59.4234 84.2856 59.4165C84.2856 59.4096 84.2856 59.4028 84.2856 59.3959C84.2856 59.389 84.2856 59.3822 84.2856 59.3753C84.2856 59.3684 84.2856 59.3616 84.2856 59.3547C84.2856 59.3479 84.2856 59.341 84.2856 59.3342C84.2856 59.3273 84.2856 59.3205 84.2856 59.3136C84.2856 59.3068 84.2856 59.2999 84.2856 59.2931C84.2856 59.2863 84.2856 59.2795 84.2856 59.2726C84.2856 59.2658 84.2856 59.259 84.2856 59.2522C84.2856 59.2454 84.2856 59.2386 84.2856 59.2318C84.2856 59.225 84.2856 59.2182 84.2856 59.2114C84.2856 59.2046 84.2856 59.1978 84.2856 59.191C84.2856 59.1842 84.2856 59.1774 84.2856 59.1706C84.2856 59.1639 84.2856 59.1571 84.2856 59.1503C84.2856 59.1435 84.2856 59.1368 84.2856 59.13C84.2856 59.1233 84.2856 59.1165 84.2856 59.1098C84.2856 59.103 84.2856 59.0963 84.2856 59.0895C84.2856 59.0828 84.2856 59.076 84.2856 59.0693C84.2856 59.0626 84.2856 59.0559 84.2856 59.0491C84.2856 59.0424 84.2856 59.0357 84.2856 59.029C84.2856 59.0223 84.2856 59.0156 84.2856 59.0089C84.2856 59.0022 84.2856 58.9955 84.2856 58.9888C84.2856 58.9821 84.2856 58.9754 84.2856 58.9687C84.2856 58.962 84.2856 58.9554 84.2856 58.9487C84.2856 58.942 84.2856 58.9354 84.2856 58.9287C84.2856 58.922 84.2856 58.9154 84.2856 58.9087C84.2856 58.9021 84.2856 58.8954 84.2856 58.8888C84.2856 58.8822 84.2856 58.8755 84.2856 58.8689C84.2856 58.8623 84.2856 58.8556 84.2856 58.849C84.2856 58.8424 84.2856 58.8358 84.2856 58.8292C84.2856 58.8226 84.2856 58.816 84.2856 58.8094C84.2856 58.8028 84.2856 58.7962 84.2856 58.7896C84.2856 58.783 84.2856 58.7764 84.2856 58.7699C84.2856 58.7633 84.2856 58.7567 84.2856 58.7501C84.2856 58.7436 84.2856 58.737 84.2856 58.7305C84.2856 58.7239 84.2856 58.7174 84.2856 58.7108C84.2856 58.7043 84.2856 58.6978 84.2856 58.6912C84.2856 58.6847 84.2856 58.6782 84.2856 58.6717C84.2856 58.6651 84.2856 58.6586 84.2856 58.6521C84.2856 58.6456 84.2856 58.6391 84.2856 58.6326C84.2856 58.6261 84.2856 58.6196 84.2856 58.6132C84.2856 58.6067 84.2856 58.6002 84.2856 58.5937C84.2856 58.5873 84.2856 58.5808 84.2856 58.5743C84.2856 58.5679 84.2856 58.5614 84.2856 58.555C84.2856 58.5485 84.2856 58.5421 84.2856 58.5357C84.2856 58.5292 84.2856 58.5228 84.2856 58.5164C84.2856 58.51 84.2856 58.5036 84.2856 58.4972C84.2856 58.4907 84.2856 58.4843 84.2856 58.4779C84.2856 58.4715 84.2856 58.4652 84.2856 58.4588C84.2856 58.4524 84.2856 58.446 84.2856 58.4396C84.2856 58.4333 84.2856 58.4269 84.2856 58.4206C84.2856 58.4142 84.2856 58.4079 84.2856 58.4015C84.2856 58.3952 84.2856 58.3888 84.2856 58.3825C84.2856 58.3762 84.2856 58.3698 84.2856 58.3635C84.2856 58.3572 84.2856 58.3509 84.2856 58.3446C84.2856 58.3383 84.2856 58.332 84.2856 58.3257C84.2856 58.3194 84.2856 58.3131 84.2856 58.3069C84.2856 58.3006 84.2856 58.2943 84.2856 58.288H80.2856C80.2856 58.2943 80.2856 58.3006 80.2856 58.3069C80.2856 58.3131 80.2856 58.3194 80.2856 58.3257C80.2856 58.332 80.2856 58.3383 80.2856 58.3446C80.2856 58.3509 80.2856 58.3572 80.2856 58.3635C80.2856 58.3698 80.2856 58.3762 80.2856 58.3825C80.2856 58.3888 80.2856 58.3952 80.2856 58.4015C80.2856 58.4079 80.2856 58.4142 80.2856 58.4206C80.2856 58.4269 80.2856 58.4333 80.2856 58.4396C80.2856 58.446 80.2856 58.4524 80.2856 58.4588C80.2856 58.4652 80.2856 58.4715 80.2856 58.4779C80.2856 58.4843 80.2856 58.4907 80.2856 58.4972C80.2856 58.5036 80.2856 58.51 80.2856 58.5164C80.2856 58.5228 80.2856 58.5292 80.2856 58.5357C80.2856 58.5421 80.2856 58.5485 80.2856 58.555C80.2856 58.5614 80.2856 58.5679 80.2856 58.5743C80.2856 58.5808 80.2856 58.5873 80.2856 58.5937C80.2856 58.6002 80.2856 58.6067 80.2856 58.6132C80.2856 58.6196 80.2856 58.6261 80.2856 58.6326C80.2856 58.6391 80.2856 58.6456 80.2856 58.6521C80.2856 58.6586 80.2856 58.6651 80.2856 58.6717C80.2856 58.6782 80.2856 58.6847 80.2856 58.6912C80.2856 58.6978 80.2856 58.7043 80.2856 58.7108C80.2856 58.7174 80.2856 58.7239 80.2856 58.7305C80.2856 58.737 80.2856 58.7436 80.2856 58.7501C80.2856 58.7567 80.2856 58.7633 80.2856 58.7699C80.2856 58.7764 80.2856 58.783 80.2856 58.7896C80.2856 58.7962 80.2856 58.8028 80.2856 58.8094C80.2856 58.816 80.2856 58.8226 80.2856 58.8292C80.2856 58.8358 80.2856 58.8424 80.2856 58.849C80.2856 58.8556 80.2856 58.8623 80.2856 58.8689C80.2856 58.8755 80.2856 58.8822 80.2856 58.8888C80.2856 58.8954 80.2856 58.9021 80.2856 58.9087C80.2856 58.9154 80.2856 58.922 80.2856 58.9287C80.2856 58.9354 80.2856 58.942 80.2856 58.9487C80.2856 58.9554 80.2856 58.962 80.2856 58.9687C80.2856 58.9754 80.2856 58.9821 80.2856 58.9888C80.2856 58.9955 80.2856 59.0022 80.2856 59.0089C80.2856 59.0156 80.2856 59.0223 80.2856 59.029C80.2856 59.0357 80.2856 59.0424 80.2856 59.0491C80.2856 59.0559 80.2856 59.0626 80.2856 59.0693C80.2856 59.076 80.2856 59.0828 80.2856 59.0895C80.2856 59.0963 80.2856 59.103 80.2856 59.1098C80.2856 59.1165 80.2856 59.1233 80.2856 59.13C80.2856 59.1368 80.2856 59.1435 80.2856 59.1503C80.2856 59.1571 80.2856 59.1639 80.2856 59.1706C80.2856 59.1774 80.2856 59.1842 80.2856 59.191C80.2856 59.1978 80.2856 59.2046 80.2856 59.2114C80.2856 59.2182 80.2856 59.225 80.2856 59.2318C80.2856 59.2386 80.2856 59.2454 80.2856 59.2522C80.2856 59.259 80.2856 59.2658 80.2856 59.2726C80.2856 59.2795 80.2856 59.2863 80.2856 59.2931C80.2856 59.2999 80.2856 59.3068 80.2856 59.3136C80.2856 59.3205 80.2856 59.3273 80.2856 59.3342C80.2856 59.341 80.2856 59.3479 80.2856 59.3547C80.2856 59.3616 80.2856 59.3684 80.2856 59.3753C80.2856 59.3822 80.2856 59.389 80.2856 59.3959C80.2856 59.4028 80.2856 59.4096 80.2856 59.4165C80.2856 59.4234 80.2856 59.4303 80.2856 59.4372C80.2856 59.4441 80.2856 59.451 80.2856 59.4579C80.2856 59.4648 80.2856 59.4717 80.2856 59.4786C80.2856 59.4855 80.2856 59.4924 80.2856 59.4993C80.2856 59.5062 80.2856 59.5131 80.2856 59.52C80.2856 59.5269 80.2856 59.5339 80.2856 59.5408C80.2856 59.5477 80.2856 59.5547 80.2856 59.5616C80.2856 59.5685 80.2856 59.5755 80.2856 59.5824C80.2856 59.5893 80.2856 59.5963 80.2856 59.6032C80.2856 59.6102 80.2856 59.6171 80.2856 59.6241C80.2856 59.631 80.2856 59.638 80.2856 59.645C80.2856 59.6519 80.2856 59.6589 80.2856 59.6659C80.2856 59.6728 80.2856 59.6798 80.2856 59.6868C80.2856 59.6937 80.2856 59.7007 80.2856 59.7077C80.2856 59.7147 80.2856 59.7217 80.2856 59.7287C80.2856 59.7356 80.2856 59.7426 80.2856 59.7496C80.2856 59.7566 80.2856 59.7636 80.2856 59.7706C80.2856 59.7776 80.2856 59.7846 80.2856 59.7916C80.2856 59.7986 80.2856 59.8057 80.2856 59.8127C80.2856 59.8197 80.2856 59.8267 80.2856 59.8337C80.2856 59.8407 80.2856 59.8478 80.2856 59.8548C80.2856 59.8618 80.2856 59.8688 80.2856 59.8759C80.2856 59.8829 80.2856 59.8899 80.2856 59.897C80.2856 59.904 80.2856 59.911 80.2856 59.9181C80.2856 59.9251 80.2856 59.9322 80.2856 59.9392C80.2856 59.9463 80.2856 59.9533 80.2856 59.9604C80.2856 59.9674 80.2856 59.9745 80.2856 59.9815C80.2856 59.9886 80.2856 59.9957 80.2856 60.0027C80.2856 60.0098 80.2856 60.0168 80.2856 60.0239C80.2856 60.031 80.2856 60.038 80.2856 60.0451C80.2856 60.0522 80.2856 60.0593 80.2856 60.0663C80.2856 60.0734 80.2856 60.0805 80.2856 60.0876C80.2856 60.0947 80.2856 60.1018 80.2856 60.1088C80.2856 60.1159 80.2856 60.123 80.2856 60.1301C80.2856 60.1372 80.2856 60.1443 80.2856 60.1514C80.2856 60.1585 80.2856 60.1656 80.2856 60.1727C80.2856 60.1798 80.2856 60.1869 80.2856 60.194C80.2856 60.2011 80.2856 60.2082 80.2856 60.2153C80.2856 60.2224 80.2856 60.2295 80.2856 60.2367C80.2856 60.2438 80.2856 60.2509 80.2856 60.258C80.2856 60.2651 80.2856 60.2722 80.2856 60.2794C80.2856 60.2865 80.2856 60.2936 80.2856 60.3007C80.2856 60.3078 80.2856 60.315 80.2856 60.3221C80.2856 60.3292 80.2856 60.3364 80.2856 60.3435C80.2856 60.3506 80.2856 60.3578 80.2856 60.3649C80.2856 60.372 80.2856 60.3792 80.2856 60.3863C80.2856 60.3934 80.2856 60.4006 80.2856 60.4077C80.2856 60.4149 80.2856 60.422 80.2856 60.4292C80.2856 60.4363 80.2856 60.4434 80.2856 60.4506C80.2856 60.4577 80.2856 60.4649 80.2856 60.472C80.2856 60.4792 80.2856 60.4863 80.2856 60.4935C80.2856 60.5006 80.2856 60.5078 80.2856 60.515C80.2856 60.5221 80.2856 60.5293 80.2856 60.5364C80.2856 60.5436 80.2856 60.5508 80.2856 60.5579C80.2856 60.5651 80.2856 60.5722 80.2856 60.5794C80.2856 60.5866 80.2856 60.5937 80.2856 60.6009C80.2856 60.6081 80.2856 60.6152 80.2856 60.6224C80.2856 60.6296 80.2856 60.6367 80.2856 60.6439C80.2856 60.6511 80.2856 60.6582 80.2856 60.6654C80.2856 60.6726 80.2856 60.6798 80.2856 60.6869C80.2856 60.6941 80.2856 60.7013 80.2856 60.7085C80.2856 60.7156 80.2856 60.7228 80.2856 60.73C80.2856 60.7372 80.2856 60.7444 80.2856 60.7515C80.2856 60.7587 80.2856 60.7659 80.2856 60.7731C80.2856 60.7803 80.2856 60.7874 80.2856 60.7946C80.2856 60.8018 80.2856 60.809 80.2856 60.8162C80.2856 60.8234 80.2856 60.8305 80.2856 60.8377C80.2856 60.8449 80.2856 60.8521 80.2856 60.8593C80.2856 60.8665 80.2856 60.8737 80.2856 60.8808C80.2856 60.888 80.2856 60.8952 80.2856 60.9024C80.2856 60.9096 80.2856 60.9168 80.2856 60.924C80.2856 60.9312 80.2856 60.9383 80.2856 60.9455C80.2856 60.9527 80.2856 60.9599 80.2856 60.9671C80.2856 60.9743 80.2856 60.9815 80.2856 60.9887C80.2856 60.9959 80.2856 61.0031 80.2856 61.0102C80.2856 61.0174 80.2856 61.0246 80.2856 61.0318C80.2856 61.039 80.2856 61.0462 80.2856 61.0534C80.2856 61.0606 80.2856 61.0678 80.2856 61.075C80.2856 61.0822 80.2856 61.0893 80.2856 61.0965C80.2856 61.1037 80.2856 61.1109 80.2856 61.1181C80.2856 61.1253 80.2856 61.1325 80.2856 61.1397C80.2856 61.1469 80.2856 61.1541 80.2856 61.1613C80.2856 61.1684 80.2856 61.1756 80.2856 61.1828C80.2856 61.19 80.2856 61.1972 80.2856 61.2044C80.2856 61.2116 80.2856 61.2188 80.2856 61.226C80.2856 61.2332 80.2856 61.2403 80.2856 61.2475C80.2856 61.2547 80.2856 61.2619 80.2856 61.2691C80.2856 61.2763 80.2856 61.2835 80.2856 61.2907C80.2856 61.2978 80.2856 61.305 80.2856 61.3122C80.2856 61.3194 80.2856 61.3266 80.2856 61.3338C80.2856 61.341 80.2856 61.3481 80.2856 61.3553C80.2856 61.3625 80.2856 61.3697 80.2856 61.3769C80.2856 61.3841 80.2856 61.3912 80.2856 61.3984C80.2856 61.4056 80.2856 61.4128 80.2856 61.42C80.2856 61.4271 80.2856 61.4343 80.2856 61.4415C80.2856 61.4487 80.2856 61.4558 80.2856 61.463C80.2856 61.4702 80.2856 61.4774 80.2856 61.4845C80.2856 61.4917 80.2856 61.4989 80.2856 61.5061C80.2856 61.5132 80.2856 61.5204 80.2856 61.5276C80.2856 61.5347 80.2856 61.5419 80.2856 61.5491C80.2856 61.5562 80.2856 61.5634 80.2856 61.5706C80.2856 61.5777 80.2856 61.5849 80.2856 61.5921C80.2856 61.5992 80.2856 61.6064 80.2856 61.6136C80.2856 61.6207 80.2856 61.6279 80.2856 61.635C80.2856 61.6422 80.2856 61.6494 80.2856 61.6565C80.2856 61.6637 80.2856 61.6708 80.2856 61.678C80.2856 61.6851 80.2856 61.6923 80.2856 61.6994C80.2856 61.7066 80.2856 61.7137 80.2856 61.7209C80.2856 61.728 80.2856 61.7352 80.2856 61.7423C80.2856 61.7494 80.2856 61.7566 80.2856 61.7637C80.2856 61.7709 80.2856 61.778 80.2856 61.7851C80.2856 61.7923 80.2856 61.7994 80.2856 61.8066C80.2856 61.8137 80.2856 61.8208 80.2856 61.8279C80.2856 61.8351 80.2856 61.8422 80.2856 61.8493C80.2856 61.8565 80.2856 61.8636 80.2856 61.8707C80.2856 61.8778 80.2856 61.885 80.2856 61.8921C80.2856 61.8992 80.2856 61.9063 80.2856 61.9134C80.2856 61.9205 80.2856 61.9277 80.2856 61.9348C80.2856 61.9419 80.2856 61.949 80.2856 61.9561C80.2856 61.9632 80.2856 61.9703 80.2856 61.9774C80.2856 61.9845 80.2856 61.9916 80.2856 61.9987C80.2856 62.0058 80.2856 62.0129 80.2856 62.02C80.2856 62.0271 80.2856 62.0342 80.2856 62.0413C80.2856 62.0484 80.2856 62.0555 80.2856 62.0625C80.2856 62.0696 80.2856 62.0767 80.2856 62.0838C80.2856 62.0909 80.2856 62.098 80.2856 62.105C80.2856 62.1121 80.2856 62.1192 80.2856 62.1263C80.2856 62.1333 80.2856 62.1404 80.2856 62.1475C80.2856 62.1545 80.2856 62.1616 80.2856 62.1687C80.2856 62.1757 80.2856 62.1828 80.2856 62.1898C80.2856 62.1969 80.2856 62.2039 80.2856 62.211C80.2856 62.218 80.2856 62.2251 80.2856 62.2321C80.2856 62.2392 80.2856 62.2462 80.2856 62.2533C80.2856 62.2603 80.2856 62.2673 80.2856 62.2744C80.2856 62.2814 80.2856 62.2884 80.2856 62.2955C80.2856 62.3025 80.2856 62.3095 80.2856 62.3165C80.2856 62.3236 80.2856 62.3306 80.2856 62.3376C80.2856 62.3446 80.2856 62.3516 80.2856 62.3586C80.2856 62.3657 80.2856 62.3727 80.2856 62.3797C80.2856 62.3867 80.2856 62.3937 80.2856 62.4007C80.2856 62.4077 80.2856 62.4147 80.2856 62.4217C80.2856 62.4287 80.2856 62.4356 80.2856 62.4426C80.2856 62.4496 80.2856 62.4566 80.2856 62.4636C80.2856 62.4706 80.2856 62.4775 80.2856 62.4845C80.2856 62.4915 80.2856 62.4984 80.2856 62.5054C80.2856 62.5124 80.2856 62.5193 80.2856 62.5263C80.2856 62.5333 80.2856 62.5402 80.2856 62.5472C80.2856 62.5541 80.2856 62.5611 80.2856 62.568C80.2856 62.575 80.2856 62.5819 80.2856 62.5888C80.2856 62.5958 80.2856 62.6027 80.2856 62.6096C80.2856 62.6166 80.2856 62.6235 80.2856 62.6304C80.2856 62.6373 80.2856 62.6443 80.2856 62.6512C80.2856 62.6581 80.2856 62.665 80.2856 62.6719C80.2856 62.6788 80.2856 62.6857 80.2856 62.6926C80.2856 62.6995 80.2856 62.7064 80.2856 62.7133C80.2856 62.7202 80.2856 62.7271 80.2856 62.734C80.2856 62.7409 80.2856 62.7478 80.2856 62.7546C80.2856 62.7615 80.2856 62.7684 80.2856 62.7753C80.2856 62.7821 80.2856 62.789 80.2856 62.7959C80.2856 62.8027 80.2856 62.8096 80.2856 62.8164C80.2856 62.8233 80.2856 62.8301 80.2856 62.837C80.2856 62.8438 80.2856 62.8507 80.2856 62.8575C80.2856 62.8643 80.2856 62.8712 80.2856 62.878C80.2856 62.8848 80.2856 62.8916 80.2856 62.8985C80.2856 62.9053 80.2856 62.9121 80.2856 62.9189C80.2856 62.9257 80.2856 62.9325 80.2856 62.9393C80.2856 62.9461 80.2856 62.9529 80.2856 62.9597C80.2856 62.9665 80.2856 62.9733 80.2856 62.9801C80.2856 62.9869 80.2856 62.9937 80.2856 63.0004C80.2856 63.0072 80.2856 63.014 80.2856 63.0207C80.2856 63.0275 80.2856 63.0343 80.2856 63.041C80.2856 63.0478 80.2856 63.0545 80.2856 63.0613C80.2856 63.068 80.2856 63.0748 80.2856 63.0815C80.2856 63.0882 80.2856 63.095 80.2856 63.1017C80.2856 63.1084 80.2856 63.1151 80.2856 63.1219C80.2856 63.1286 80.2856 63.1353 80.2856 63.142C80.2856 63.1487 80.2856 63.1554 80.2856 63.1621C80.2856 63.1688 80.2856 63.1755 80.2856 63.1822C80.2856 63.1889 80.2856 63.1956 80.2856 63.2022C80.2856 63.2089 80.2856 63.2156 80.2856 63.2223C80.2856 63.2289 80.2856 63.2356 80.2856 63.2422C80.2856 63.2489 80.2856 63.2555 80.2856 63.2622C80.2856 63.2688 80.2856 63.2755 80.2856 63.2821C80.2856 63.2888 80.2856 63.2954 80.2856 63.302C80.2856 63.3086 80.2856 63.3153 80.2856 63.3219C80.2856 63.3285 80.2856 63.3351 80.2856 63.3417C80.2856 63.3483 80.2856 63.3549 80.2856 63.3615C80.2856 63.3681 80.2856 63.3747 80.2856 63.3813C80.2856 63.3878 80.2856 63.3944 80.2856 63.401C80.2856 63.4076 80.2856 63.4141 80.2856 63.4207C80.2856 63.4272 80.2856 63.4338 80.2856 63.4403C80.2856 63.4469 80.2856 63.4534 80.2856 63.46C80.2856 63.4665 80.2856 63.473 80.2856 63.4796C80.2856 63.4861 80.2856 63.4926 80.2856 63.4991C80.2856 63.5056 80.2856 63.5121 80.2856 63.5186C80.2856 63.5251 80.2856 63.5316 80.2856 63.5381C80.2856 63.5446 80.2856 63.5511 80.2856 63.5576C80.2856 63.5641 80.2856 63.5705 80.2856 63.577C80.2856 63.5835 80.2856 63.5899 80.2856 63.5964C80.2856 63.6028 80.2856 63.6093 80.2856 63.6157C80.2856 63.6221 80.2856 63.6286 80.2856 63.635C80.2856 63.6414 80.2856 63.6479 80.2856 63.6543C80.2856 63.6607 80.2856 63.6671 80.2856 63.6735C80.2856 63.6799 80.2856 63.6863 80.2856 63.6927C80.2856 63.6991 80.2856 63.7055 80.2856 63.7119C80.2856 63.7182 80.2856 63.7246 80.2856 63.731C80.2856 63.7373 80.2856 63.7437 80.2856 63.75C80.2856 63.7564 80.2856 63.7627 80.2856 63.7691C80.2856 63.7754 80.2856 63.7818 80.2856 63.7881C80.2856 63.7944 80.2856 63.8007 80.2856 63.807C80.2856 63.8133 80.2856 63.8197 80.2856 63.826C80.2856 63.8323 80.2856 63.8385 80.2856 63.8448C80.2856 63.8511 80.2856 63.8574 80.2856 63.8637C80.2856 63.8699 80.2856 63.8762 80.2856 63.8825C80.2856 63.8887 80.2856 63.895 80.2856 63.9012C80.2856 63.9075 80.2856 63.9137 80.2856 63.9199C80.2856 63.9262 80.2856 63.9324 80.2856 63.9386C80.2856 63.9448 80.2856 63.951 80.2856 63.9572C80.2856 63.9634 80.2856 63.9696 80.2856 63.9758C80.2856 63.982 80.2856 63.9882 80.2856 63.9944C80.2856 64.0005 80.2856 64.0067 80.2856 64.0129C80.2856 64.019 80.2856 64.0252 80.2856 64.0313C80.2856 64.0375 80.2856 64.0436 80.2856 64.0497C80.2856 64.0559 80.2856 64.062 80.2856 64.0681C80.2856 64.0742 80.2856 64.0803 80.2856 64.0864C80.2856 64.0925 80.2856 64.0986 80.2856 64.1047C80.2856 64.1108 80.2856 64.1169 80.2856 64.1229C80.2856 64.129 80.2856 64.1351 80.2856 64.1411C80.2856 64.1472 80.2856 64.1532 80.2856 64.1593C80.2856 64.1653 80.2856 64.1713 80.2856 64.1774C80.2856 64.1834 80.2856 64.1894 80.2856 64.1954C80.2856 64.2014 80.2856 64.2074 80.2856 64.2134C80.2856 64.2194 80.2856 64.2254 80.2856 64.2314C80.2856 64.2374 80.2856 64.2433 80.2856 64.2493C80.2856 64.2553 80.2856 64.2612 80.2856 64.2672C80.2856 64.2731 80.2856 64.2791 80.2856 64.285C80.2856 64.2909 80.2856 64.2968 80.2856 64.3028C80.2856 64.3087 80.2856 64.3146 80.2856 64.3205C80.2856 64.3264 80.2856 64.3323 80.2856 64.3382C80.2856 64.344 80.2856 64.3499 80.2856 64.3558C80.2856 64.3616 80.2856 64.3675 80.2856 64.3734C80.2856 64.3792 80.2856 64.385 80.2856 64.3909C80.2856 64.3967 80.2856 64.4025 80.2856 64.4084C80.2856 64.4142 80.2856 64.42 80.2856 64.4258C80.2856 64.4316 80.2856 64.4374 80.2856 64.4432C80.2856 64.4489 80.2856 64.4547 80.2856 64.4605C80.2856 64.4662 80.2856 64.472 80.2856 64.4778C80.2856 64.4835 80.2856 64.4892 80.2856 64.495C80.2856 64.5007 80.2856 64.5064 80.2856 64.5121C80.2856 64.5179 80.2856 64.5236 80.2856 64.5293C80.2856 64.535 80.2856 64.5406 80.2856 64.5463C80.2856 64.552 80.2856 64.5577 80.2856 64.5633C80.2856 64.569 80.2856 64.5747 80.2856 64.5803C80.2856 64.586 80.2856 64.5916 80.2856 64.5972C80.2856 64.6028 80.2856 64.6085 80.2856 64.6141C80.2856 64.6197 80.2856 64.6253 80.2856 64.6309C80.2856 64.6365 80.2856 64.642 80.2856 64.6476C80.2856 64.6532 80.2856 64.6588 80.2856 64.6643C80.2856 64.6699 80.2856 64.6754 80.2856 64.6809C80.2856 64.6865 80.2856 64.692 80.2856 64.6975C80.2856 64.703 80.2856 64.7086 80.2856 64.7141C80.2856 64.7196 80.2856 64.725 80.2856 64.7305C80.2856 64.736 80.2856 64.7415 80.2856 64.7469C80.2856 64.7524 80.2856 64.7579 80.2856 64.7633C80.2856 64.7687 80.2856 64.7742 80.2856 64.7796C80.2856 64.785 80.2856 64.7904 80.2856 64.7959C80.2856 64.8013 80.2856 64.8067 80.2856 64.812C80.2856 64.8174 80.2856 64.8228 80.2856 64.8282C80.2856 64.8335 80.2856 64.8389 80.2856 64.8443C80.2856 64.8496 80.2856 64.8549 80.2856 64.8603C80.2856 64.8656 80.2856 64.8709 80.2856 64.8762C80.2856 64.8815 80.2856 64.8868 80.2856 64.8921C80.2856 64.8974 80.2856 64.9027 80.2856 64.908C80.2856 64.9132 80.2856 64.9185 80.2856 64.9237C80.2856 64.929 80.2856 64.9342 80.2856 64.9395C80.2856 64.9447 80.2856 64.9499 80.2856 64.9551C80.2856 64.9603 80.2856 64.9655 80.2856 64.9707C80.2856 64.9759 80.2856 64.9811 80.2856 64.9863C80.2856 64.9914 80.2856 64.9966 80.2856 65.0018C80.2856 65.0069 80.2856 65.0121 80.2856 65.0172C80.2856 65.0223 80.2856 65.0274 80.2856 65.0325C80.2856 65.0376 80.2856 65.0427 80.2856 65.0478C80.2856 65.0529 80.2856 65.058 80.2856 65.0631C80.2856 65.0681 80.2856 65.0732 80.2856 65.0782C80.2856 65.0833 80.2856 65.0883 80.2856 65.0934C80.2856 65.0984 80.2856 65.1034 80.2856 65.1084C80.2856 65.1134 80.2856 65.1184 80.2856 65.1234C80.2856 65.1284 80.2856 65.1333 80.2856 65.1383C80.2856 65.1433 80.2856 65.1482 80.2856 65.1532C80.2856 65.1581 80.2856 65.163 80.2856 65.168C80.2856 65.1729 80.2856 65.1778 80.2856 65.1827C80.2856 65.1876 80.2856 65.1925 80.2856 65.1974C80.2856 65.2022 80.2856 65.2071 80.2856 65.212C80.2856 65.2168 80.2856 65.2217 80.2856 65.2265C80.2856 65.2313 80.2856 65.2361 80.2856 65.241C80.2856 65.2458 80.2856 65.2506 80.2856 65.2554C80.2856 65.2601 80.2856 65.2649 80.2856 65.2697C80.2856 65.2745 80.2856 65.2792 80.2856 65.284C80.2856 65.2887 80.2856 65.2934 80.2856 65.2982C80.2856 65.3029 80.2856 65.3076 80.2856 65.3123C80.2856 65.317 80.2856 65.3217 80.2856 65.3264C80.2856 65.331 80.2856 65.3357 80.2856 65.3404C80.2856 65.345 80.2856 65.3497 80.2856 65.3543C80.2856 65.3589 80.2856 65.3636 80.2856 65.3682C80.2856 65.3728 80.2856 65.3774 80.2856 65.382C80.2856 65.3865 80.2856 65.3911 80.2856 65.3957C80.2856 65.4003 80.2856 65.4048 80.2856 65.4093C80.2856 65.4139 80.2856 65.4184 80.2856 65.4229C80.2856 65.4275 80.2856 65.432 80.2856 65.4365C80.2856 65.4409 80.2856 65.4454 80.2856 65.4499C80.2856 65.4544 80.2856 65.4588 80.2856 65.4633C80.2856 65.4677 80.2856 65.4722 80.2856 65.4766C80.2856 65.481 80.2856 65.4854 80.2856 65.4898C80.2856 65.4942 80.2856 65.4986 80.2856 65.503C80.2856 65.5074 80.2856 65.5117 80.2856 65.5161C80.2856 65.5204 80.2856 65.5248 80.2856 65.5291C80.2856 65.5334 80.2856 65.5377 80.2856 65.542C80.2856 65.5464 80.2856 65.5506 80.2856 65.5549C80.2856 65.5592 80.2856 65.5635 80.2856 65.5677C80.2856 65.572 80.2856 65.5762 80.2856 65.5805C80.2856 65.5847 80.2856 65.5889 80.2856 65.5931C80.2856 65.5973 80.2856 65.6015 80.2856 65.6057C80.2856 65.6099 80.2856 65.614 80.2856 65.6182C80.2856 65.6224 80.2856 65.6265 80.2856 65.6306C80.2856 65.6348 80.2856 65.6389 80.2856 65.643C80.2856 65.6471 80.2856 65.6512 80.2856 65.6553C80.2856 65.6594 80.2856 65.6634 80.2856 65.6675C80.2856 65.6715 80.2856 65.6756 80.2856 65.6796C80.2856 65.6837 80.2856 65.6877 80.2856 65.6917C80.2856 65.6957 80.2856 65.6997 80.2856 65.7037C80.2856 65.7076 80.2856 65.7116 80.2856 65.7156C80.2856 65.7195 80.2856 65.7235 80.2856 65.7274C80.2856 65.7313 80.2856 65.7352 80.2856 65.7391C80.2856 65.743 80.2856 65.7469 80.2856 65.7508C80.2856 65.7547 80.2856 65.7586 80.2856 65.7624C80.2856 65.7663 80.2856 65.7701 80.2856 65.7739C80.2856 65.7778 80.2856 65.7816 80.2856 65.7854C80.2856 65.7892 80.2856 65.793 80.2856 65.7967C80.2856 65.8005 80.2856 65.8043 80.2856 65.808C80.2856 65.8118 80.2856 65.8155 80.2856 65.8192C80.2856 65.8229 80.2856 65.8266 80.2856 65.8303C80.2856 65.834 80.2856 65.8377 80.2856 65.8414C80.2856 65.845 80.2856 65.8487 80.2856 65.8523C80.2856 65.856 80.2856 65.8596 80.2856 65.8632C80.2856 65.8668 80.2856 65.8704 80.2856 65.874C80.2856 65.8776 80.2856 65.8812 80.2856 65.8847C80.2856 65.8883 80.2856 65.8918 80.2856 65.8954C80.2856 65.8989 80.2856 65.9024 80.2856 65.9059C80.2856 65.9094 80.2856 65.9129 80.2856 65.9164C80.2856 65.9199 80.2856 65.9234 80.2856 65.9268C80.2856 65.9303 80.2856 65.9337 80.2856 65.9371C80.2856 65.9405 80.2856 65.9439 80.2856 65.9473C80.2856 65.9507 80.2856 65.9541 80.2856 65.9575C80.2856 65.9609 80.2856 65.9642 80.2856 65.9675C80.2856 65.9709 80.2856 65.9742 80.2856 65.9775C80.2856 65.9808 80.2856 65.9841 80.2856 65.9874C80.2856 65.9907 80.2856 65.994 80.2856 65.9972C80.2856 66.0005 80.2856 66.0037 80.2856 66.0069C80.2856 66.0102 80.2856 66.0134 80.2856 66.0166C80.2856 66.0198 80.2856 66.023 80.2856 66.0261C80.2856 66.0293 80.2856 66.0325 80.2856 66.0356C80.2856 66.0387 80.2856 66.0419 80.2856 66.045C80.2856 66.0481 80.2856 66.0512 80.2856 66.0543C80.2856 66.0574 80.2856 66.0604 80.2856 66.0635C80.2856 66.0665 80.2856 66.0696 80.2856 66.0726C80.2856 66.0756 80.2856 66.0786 80.2856 66.0816C80.2856 66.0846 80.2856 66.0876 80.2856 66.0906C80.2856 66.0936 80.2856 66.0965 80.2856 66.0994C80.2856 66.1024 80.2856 66.1053 80.2856 66.1082C80.2856 66.1111 80.2856 66.114 80.2856 66.1169C80.2856 66.1198 80.2856 66.1226 80.2856 66.1255C80.2856 66.1283 80.2856 66.1312 80.2856 66.134C80.2856 66.1368 80.2856 66.1396 80.2856 66.1424C80.2856 66.1452 80.2856 66.148 80.2856 66.1507C80.2856 66.1535 80.2856 66.1562 80.2856 66.159C80.2856 66.1617 80.2856 66.1644 80.2856 66.1671C80.2856 66.1698 80.2856 66.1725 80.2856 66.1752C80.2856 66.1778 80.2856 66.1805 80.2856 66.1831C80.2856 66.1858 80.2856 66.1884 80.2856 66.191C80.2856 66.1936 80.2856 66.1962 80.2856 66.1988C80.2856 66.2014 80.2856 66.2039 80.2856 66.2065C80.2856 66.209 80.2856 66.2116 80.2856 66.2141C80.2856 66.2166 80.2856 66.2191 80.2856 66.2216C80.2856 66.2241 80.2856 66.2265 80.2856 66.229C80.2856 66.2315 80.2856 66.2339 80.2856 66.2363C80.2856 66.2387 80.2856 66.2412 80.2856 66.2435C80.2856 66.2459 80.2856 66.2483 80.2856 66.2507C80.2856 66.253 80.2856 66.2554 80.2856 66.2577C80.2856 66.2601 80.2856 66.2624 80.2856 66.2647C80.2856 66.267 80.2856 66.2693 80.2856 66.2715C80.2856 66.2738 80.2856 66.276 80.2856 66.2783C80.2856 66.2805 80.2856 66.2827 80.2856 66.2849C80.2856 66.2871 80.2856 66.2893 80.2856 66.2915C80.2856 66.2937 80.2856 66.2958 80.2856 66.298C80.2856 66.3001 80.2856 66.3022 80.2856 66.3043C80.2856 66.3065 80.2856 66.3085 80.2856 66.3106C80.2856 66.3127 80.2856 66.3148 80.2856 66.3168C80.2856 66.3188 80.2856 66.3209 80.2856 66.3229C80.2856 66.3249 80.2856 66.3269 80.2856 66.3289C80.2856 66.3309 80.2856 66.3328 80.2856 66.3348C80.2856 66.3367 80.2856 66.3386 80.2856 66.3406C80.2856 66.3425 80.2856 66.3444 80.2856 66.3462C80.2856 66.3481 80.2856 66.35 80.2856 66.3518C80.2856 66.3537 80.2856 66.3555 80.2856 66.3573C80.2856 66.3592 80.2856 66.361 80.2856 66.3627C80.2856 66.3645 80.2856 66.3663 80.2856 66.368C80.2856 66.3698 80.2856 66.3715 80.2856 66.3732C80.2856 66.3749 80.2856 66.3766 80.2856 66.3783C80.2856 66.38 80.2856 66.3817 80.2856 66.3833C80.2856 66.385 80.2856 66.3866 80.2856 66.3882C80.2856 66.3898 80.2856 66.3914 80.2856 66.393C80.2856 66.3946 80.2856 66.3962 80.2856 66.3977C80.2856 66.3993 80.2856 66.4008 80.2856 66.4023C80.2856 66.4038 80.2856 66.4053 80.2856 66.4068C80.2856 66.4083 80.2856 66.4097 80.2856 66.4112C80.2856 66.4126 80.2856 66.4141 80.2856 66.4155C80.2856 66.4169 80.2856 66.4183 80.2856 66.4197C80.2856 66.421 80.2856 66.4224 80.2856 66.4237C80.2856 66.4251 80.2856 66.4264 80.2856 66.4277C80.2856 66.429 80.2856 66.4303 80.2856 66.4316C80.2856 66.4329 80.2856 66.4341 80.2856 66.4354C80.2856 66.4366 80.2856 66.4378 80.2856 66.439C80.2856 66.4402 80.2856 66.4414 80.2856 66.4426C80.2856 66.4438 80.2856 66.4449 80.2856 66.4461C80.2856 66.4472 80.2856 66.4483 80.2856 66.4494C80.2856 66.4505 80.2856 66.4516 80.2856 66.4527C80.2856 66.4537 80.2856 66.4548 80.2856 66.4558C80.2856 66.4568 80.2856 66.4578 80.2856 66.4588C80.2856 66.4598 80.2856 66.4608 80.2856 66.4618C80.2856 66.4627 80.2856 66.4637 80.2856 66.4646C80.2856 66.4655 80.2856 66.4664 80.2856 66.4673C80.2856 66.4682 80.2856 66.4691 80.2856 66.4699C80.2856 66.4708 80.2856 66.4716 80.2856 66.4724C80.2856 66.4732 80.2856 66.474 80.2856 66.4748C80.2856 66.4756 80.2856 66.4763 80.2856 66.4771C80.2856 66.4778 80.2856 66.4785 80.2856 66.4793C80.2856 66.48 80.2856 66.4807 80.2856 66.4813C80.2856 66.482 80.2856 66.4826 80.2856 66.4833C80.2856 66.4839 80.2856 66.4845 80.2856 66.4851C80.2856 66.4857 80.2856 66.4863 80.2856 66.4869C80.2856 66.4874 80.2856 66.488 80.2856 66.4885C80.2856 66.489 80.2856 66.4895 80.2856 66.49C80.2856 66.4905 80.2856 66.491 80.2856 66.4914C80.2856 66.4919 80.2856 66.4923 80.2856 66.4927C80.2856 66.4931 80.2856 66.4935 80.2856 66.4939C80.2856 66.4943 80.2856 66.4946 80.2856 66.495C80.2856 66.4953 80.2856 66.4956 80.2856 66.4959C80.2856 66.4962 80.2856 66.4965 80.2856 66.4968C80.2856 66.4971 80.2856 66.4973 80.2856 66.4975C80.2856 66.4978 80.2856 66.498 80.2856 66.4982C80.2856 66.4983 80.2856 66.4985 80.2856 66.4987C80.2856 66.4988 80.2856 66.499 80.2856 66.4991C80.2856 66.4992 80.2856 66.4993 80.2856 66.4994C80.2856 66.4994 80.2856 66.4995 80.2856 66.4995C80.2856 66.4996 80.2856 66.4996 82.2856 66.4996ZM55.2939 58.288V66.4996H59.2939V58.288H55.2939ZM55.2939 66.4996V70.4268H59.2939V66.4996H55.2939ZM82.2856 64.4996H57.2939V68.4996H82.2856V64.4996ZM60.4432 56.3096C56.889 55.7831 54.6232 54.1646 53.3542 52.2696C52.0654 50.345 51.7083 47.9954 52.2322 45.8444C52.753 43.706 54.1353 41.7945 56.3208 40.6964C58.5013 39.6007 61.6932 39.2139 65.9769 40.5601L67.1761 36.7441C62.1323 35.1591 57.8309 35.461 54.5248 37.1222C51.2236 38.781 49.126 41.6946 48.3458 44.8979C47.5687 48.0884 48.0898 51.597 50.0305 54.4952C51.9911 57.4231 55.3063 59.5923 59.857 60.2664L60.4432 56.3096ZM65.9769 40.5601C69.2298 41.5824 73.0801 43.5982 77.4902 47.016L79.9405 43.8544C75.2556 40.2236 70.9884 37.9422 67.1761 36.7441L65.9769 40.5601ZM78.4451 58.1277C83.1091 58.7637 86.9757 56.8862 89.483 53.9611C91.9481 51.0851 93.1513 47.1429 92.561 43.467C91.9534 39.6831 89.4546 36.305 84.8548 34.8138C80.3807 33.3633 74.1246 33.7543 65.888 36.7744L67.265 40.5299C75.0945 37.659 80.3523 37.559 83.6212 38.6188C86.7644 39.6378 88.2375 41.7712 88.6116 44.1012C89.0032 46.5394 88.1981 49.3136 86.4459 51.3579C84.7359 53.353 82.1761 54.5995 78.9855 54.1644L78.4451 58.1277ZM61.3978 54.3646C62.8081 55.0698 65.16 55.8557 67.871 56.086C70.5944 56.3173 73.8174 55.998 76.8304 54.3241L74.8878 50.8275C72.7596 52.0098 70.3893 52.2855 68.2096 52.1003C66.0174 51.9141 64.1565 51.2719 63.1866 50.7869L61.3978 54.3646ZM78.0013 76.7111C81.472 76.7111 84.2856 73.8976 84.2856 70.4268H80.2856C80.2856 71.6884 79.2629 72.7111 78.0013 72.7111V76.7111ZM61.5782 72.7111C60.3166 72.7111 59.2939 71.6884 59.2939 70.4268H55.2939C55.2939 73.8976 58.1075 76.7111 61.5782 76.7111V72.7111Z" fill="#FE9759"/>
</svg>
